<mxfile host="app.diagrams.net" modified="2023-06-23T02:51:35.904Z" agent="Mozilla/5.0 (Windows NT 10.0; Win64; x64) AppleWebKit/537.36 (KHTML, like Gecko) Chrome/114.0.0.0 Safari/537.36 Edg/114.0.1823.55" version="21.5.0" etag="e_ys7Evf78vOjZDVrx_l" type="github">
  <diagram name="PÃ¡gina-1" id="Ysb-NXwyCrAM6DtsRjb_">
    <mxGraphModel>
      <root>
        <mxCell id="0" />
        <mxCell id="1" parent="0" />
      </root>
    </mxGraphModel>
  </diagram>
</mxfile>
